<?xml version="1.0" encoding="UTF-8"?>
<svg fill="#00CB00" width="100pt" height="100pt" version="1.1" viewBox="0 0 100 100" xmlns="http://www.w3.org/2000/svg">
 <path d="m83.266 83.285c18.383-18.383 18.383-48.176 0-66.559-18.383-18.383-48.148-18.383-66.531 0-18.383 18.41-18.383 48.176 0 66.559 18.355 18.352 48.148 18.383 66.531 0zm-55.941-32.293c1.1484-1.1484 3.0312-1.1484 4.1758 0l9.5898 9.5586 27.41-27.352c1.1758-1.1172 3.0312-1.1172 4.1758 0.027343 1.1484 1.1484 1.1484 3 0 4.1484l-29.531 29.41c-0.55859 0.58984-1.3242 0.85156-2.0586 0.85156-0.76563 0-1.5-0.26562-2.0898-0.85156l-11.676-11.617c-1.1445-1.1484-1.1445-3.0312 0.003907-4.1758z"/>
</svg>
