<?xml version="1.0" encoding="UTF-8"?>
<svg fill="#00CB00" width="100pt" height="100pt" version="1.1" viewBox="0 0 100 100" xmlns="http://www.w3.org/2000/svg">
 <path d="m50 7.5508c-23.441 0-42.449 19.008-42.449 42.449s19.008 42.449 42.449 42.449 42.449-19.008 42.449-42.449-19.008-42.449-42.449-42.449zm3.5703 66.707v8.0859h-7.7695v-7.5312c-5.3086-0.23828-10.465-1.6641-13.477-3.4102l2.3789-9.2734c3.332 1.8203 8.0078 3.4883 13.16 3.4883 4.5195 0 7.6094-1.7461 7.6094-4.9141 0-3.0117-2.5352-4.9141-8.4023-6.8945-8.4844-2.8516-14.27-6.8164-14.27-14.508 0-6.9727 4.9141-12.445 13.398-14.113v-7.5312h7.7695v6.9766c5.3086 0.23828 8.875 1.3438 11.496 2.6133l-2.3008 8.957c-2.0586-0.87109-5.707-2.6953-11.414-2.6953-5.1523 0-6.8203 2.2227-6.8203 4.4375 0 2.6172 2.7773 4.2812 9.5156 6.8164 9.4336 3.3281 13.234 7.6914 13.234 14.824-0.003907 7.0625-4.9961 13.086-14.109 14.672z"/>
</svg>
